<?xml version="1.0" standalone="no"?>
<!DOCTYPE svg PUBLIC "-//W3C//DTD SVG 20010904//EN"
 "http://www.w3.org/TR/2001/REC-SVG-20010904/DTD/svg10.dtd">
<svg version="1.0" xmlns="http://www.w3.org/2000/svg"
 width="1024.000000pt" height="1024.000000pt" viewBox="0 0 1024.000000 1024.000000"
 preserveAspectRatio="xMidYMid meet">

<g transform="translate(0.000000,1024.000000) scale(0.100000,-0.100000)"
fill="#000000" stroke="none">
<path d="M590 5528 l0 -2873 25 -100 c63 -258 186 -441 405 -606 69 -52 242
-146 281 -153 13 -3 24 -5 24 -6 0 -1 7 -3 15 -5 8 -2 38 -10 65 -19 45 -14
286 -16 2308 -16 l2257 0 0 740 0 740 -1875 0 -1875 0 0 2585 0 2585 -815 0
-815 0 0 -2872z"/>
<path d="M4340 6375 c0 -1343 3 -2025 10 -2025 6 0 10 4 10 9 0 5 6 16 13 23
7 7 35 42 62 78 50 66 123 158 153 195 9 11 29 37 44 57 15 21 34 45 42 55 8
10 51 65 96 123 139 182 194 252 243 314 26 34 68 88 94 121 26 33 70 89 98
125 80 102 526 675 595 765 14 18 51 65 82 106 l57 74 3 1003 3 1002 -802 0
-803 0 0 -2025z"/>
<path d="M8190 8374 c-103 -35 -228 -107 -292 -168 -29 -28 -88 -96 -130 -151
-43 -55 -120 -154 -171 -220 -196 -253 -457 -592 -564 -735 -31 -41 -60 -77
-63 -80 -4 -3 -21 -25 -38 -50 -18 -25 -47 -64 -65 -86 -17 -23 -68 -88 -111
-145 -119 -156 -140 -182 -151 -195 -5 -6 -20 -24 -32 -40 -87 -115 -132 -173
-309 -400 -55 -71 -118 -151 -138 -179 -49 -64 -77 -100 -151 -194 -33 -42
-78 -101 -100 -131 -22 -30 -42 -57 -45 -60 -3 -3 -35 -43 -70 -90 -81 -106
-81 -106 -125 -159 -65 -80 -76 -49 105 -291 10 -14 47 -63 81 -110 35 -47 66
-87 69 -90 3 -3 40 -52 83 -110 43 -58 84 -112 90 -120 14 -18 84 -112 113
-151 41 -56 500 -665 511 -679 7 -8 30 -38 50 -66 70 -95 217 -289 223 -294 3
-3 17 -21 30 -40 14 -19 56 -76 95 -125 38 -50 79 -103 90 -119 11 -15 63 -84
115 -153 52 -68 111 -147 130 -173 52 -71 304 -404 310 -410 3 -3 73 -95 155
-205 82 -110 152 -202 155 -205 3 -3 38 -49 78 -103 l72 -97 955 0 c525 0 955
3 955 6 0 4 -25 38 -55 78 -131 171 -148 192 -165 216 -10 14 -114 153 -232
308 -117 156 -242 323 -278 372 -86 115 -128 172 -143 190 -7 8 -45 60 -86
115 -41 55 -94 125 -117 155 -22 30 -64 87 -93 125 -28 39 -57 77 -64 85 -7 9
-106 141 -222 295 -115 154 -215 287 -222 295 -6 8 -62 83 -124 165 -534 711
-715 950 -721 953 -5 2 -8 10 -8 18 0 8 -4 14 -8 14 -5 0 -18 17 -29 38 l-21
37 21 26 c12 14 33 41 47 59 14 19 43 57 65 85 22 27 53 68 70 90 16 21 36 47
45 56 8 9 56 69 105 134 138 179 363 467 385 493 10 13 29 37 42 55 19 28 73
97 127 162 9 11 42 54 73 95 31 41 110 143 175 226 190 243 383 491 448 575
103 133 147 190 228 294 44 55 104 134 135 175 31 41 59 77 62 80 8 7 267 341
369 475 21 28 41 62 45 78 l6 27 -847 0 -848 -1 -75 -25z"/>
</g>
</svg>
